<svg id="visual" viewBox="0 0 960 540" width="960" height="540" xmlns="http://www.w3.org/2000/svg" xmlns:xlink="http://www.w3.org/1999/xlink" version="1.1"><path d="M0 409L40 401.2C80 393.3 160 377.7 240 390.3C320 403 400 444 480 454C560 464 640 443 720 427.7C800 412.3 880 402.7 920 397.8L960 393L960 0L920 0C880 0 800 0 720 0C640 0 560 0 480 0C400 0 320 0 240 0C160 0 80 0 40 0L0 0Z" fill="#8d247e"></path><path d="M0 350L40 350.7C80 351.3 160 352.7 240 336.5C320 320.3 400 286.7 480 274.2C560 261.7 640 270.3 720 271C800 271.7 880 264.3 920 260.7L960 257L960 0L920 0C880 0 800 0 720 0C640 0 560 0 480 0C400 0 320 0 240 0C160 0 80 0 40 0L0 0Z" fill="#6d2070"></path><path d="M0 189L40 198.8C80 208.7 160 228.3 240 232.2C320 236 400 224 480 218.8C560 213.7 640 215.3 720 219.7C800 224 880 231 920 234.5L960 238L960 0L920 0C880 0 800 0 720 0C640 0 560 0 480 0C400 0 320 0 240 0C160 0 80 0 40 0L0 0Z" fill="#4f1a60"></path><path d="M0 142L40 134.8C80 127.7 160 113.3 240 106.7C320 100 400 101 480 93.3C560 85.7 640 69.3 720 78.5C800 87.7 880 122.3 920 139.7L960 157L960 0L920 0C880 0 800 0 720 0C640 0 560 0 480 0C400 0 320 0 240 0C160 0 80 0 40 0L0 0Z" fill="#34144e"></path></svg>